<?xml version="1.0" standalone="no"?>
<!DOCTYPE svg PUBLIC "-//W3C//DTD SVG 20010904//EN"
 "http://www.w3.org/TR/2001/REC-SVG-20010904/DTD/svg10.dtd">
<svg version="1.0" xmlns="http://www.w3.org/2000/svg"
 width="1200.000000pt" height="1200.000000pt" viewBox="0 0 1200.000000 1200.000000"
 preserveAspectRatio="xMidYMid meet">

<g transform="translate(0.000000,1200.000000) scale(0.100000,-0.100000)"
fill="#000000" stroke="none">
<path d="M6850 9230 l0 -490 80 0 80 0 0 259 0 259 84 12 c98 15 169 9 196
-15 19 -17 20 -33 20 -267 l0 -248 80 0 80 0 0 273 c0 263 -1 274 -22 317 -36
70 -72 85 -198 84 -72 -1 -126 -8 -172 -21 l-68 -20 0 173 0 174 -80 0 -80 0
0 -490z"/>
<path d="M4130 9670 c-14 -14 -20 -33 -20 -65 0 -63 24 -85 93 -85 76 0 92 15
92 85 0 70 -16 85 -92 85 -40 0 -58 -5 -73 -20z"/>
<path d="M3675 9573 c-11 -2 -37 -9 -57 -14 l-38 -10 0 -69 0 -70 -50 0 -50 0
0 -65 0 -65 50 0 50 0 0 -222 c0 -245 5 -270 63 -312 24 -18 43 -21 130 -21
59 0 118 6 140 13 36 13 37 15 37 63 l0 49 -85 0 c-128 0 -125 -6 -125 235 l0
195 90 0 90 0 0 65 0 65 -90 0 -90 0 0 85 c0 92 0 93 -65 78z"/>
<path d="M4793 9410 c-39 -10 -85 -26 -102 -35 -31 -15 -31 -15 -41 10 -9 23
-14 25 -70 25 l-60 0 0 -335 0 -335 80 0 80 0 0 264 0 264 38 13 c20 7 78 13
129 14 136 0 127 19 131 -295 l3 -260 80 0 79 0 0 250 c0 148 -5 270 -11 302
-27 124 -149 167 -336 118z"/>
<path d="M6315 9424 c-11 -3 -37 -10 -58 -15 -46 -12 -105 -63 -123 -106 -18
-42 -18 -135 0 -176 28 -67 64 -85 240 -117 60 -11 115 -25 122 -31 19 -15 18
-84 -1 -103 -8 -8 -36 -18 -62 -22 -47 -7 -233 1 -285 12 -28 6 -28 6 -28 -49
l0 -54 43 -12 c174 -47 366 -39 447 19 80 57 80 263 0 320 -29 20 -102 40
-226 60 -81 13 -114 36 -114 79 0 54 28 66 159 66 64 0 135 -4 159 -8 l42 -7
0 58 0 59 -52 12 c-56 14 -230 23 -263 15z"/>
<path d="M7862 9415 c-184 -44 -267 -263 -194 -505 20 -67 96 -149 157 -168
90 -29 248 -25 368 8 37 11 37 11 37 66 l0 54 -27 -7 c-16 -4 -89 -7 -163 -7
-112 -1 -141 2 -168 17 -35 19 -62 68 -62 112 l0 25 219 0 c190 0 220 2 225
16 12 32 6 191 -10 244 -31 106 -123 161 -263 159 -36 0 -90 -7 -119 -14z
m187 -126 c39 -14 61 -54 61 -114 l0 -45 -151 0 -152 0 5 50 c6 55 26 85 73
106 37 16 121 18 164 3z"/>
<path d="M5485 9410 c-112 -21 -110 -20 -110 -81 0 -48 2 -54 20 -52 206 22
305 14 347 -27 24 -25 28 -36 28 -85 0 -49 -2 -56 -17 -51 -55 16 -164 28
-223 24 -85 -6 -146 -38 -178 -93 -20 -35 -22 -51 -20 -131 3 -81 6 -94 31
-127 62 -81 258 -90 384 -17 l33 19 6 -24 c6 -24 10 -25 76 -25 l69 0 -3 263
c-3 259 -3 263 -28 312 -20 38 -37 55 -74 74 -43 22 -63 25 -170 27 -67 2
-143 -1 -171 -6z m268 -405 c15 -6 17 -17 15 -64 -3 -56 -3 -56 -43 -70 -22
-7 -71 -15 -110 -18 -61 -4 -73 -2 -97 17 -45 35 -36 119 15 141 24 10 190 5
220 -6z"/>
<path d="M4120 9075 l0 -335 80 0 80 0 0 335 0 335 -80 0 -80 0 0 -335z"/>
<path d="M4360 7800 c-86 -10 -239 -56 -345 -105 -248 -113 -402 -293 -449
-525 -65 -325 14 -566 237 -724 85 -60 152 -93 292 -141 65 -24 120 -46 121
-51 2 -5 -37 -28 -84 -51 -273 -131 -528 -357 -636 -563 -62 -117 -81 -199
-80 -335 1 -108 4 -128 31 -200 39 -103 71 -154 152 -239 189 -197 522 -332
906 -368 264 -24 604 38 860 157 214 99 368 234 442 385 57 116 67 171 61 326
-6 138 -31 242 -86 349 -118 235 -373 443 -633 519 l-82 23 79 43 c140 76 266
170 375 279 88 89 112 120 148 191 50 102 65 182 57 306 -19 278 -143 458
-412 594 -134 69 -258 107 -389 120 -151 15 -474 21 -565 10z m235 -521 c208
-25 430 -139 512 -263 95 -144 47 -275 -124 -336 -60 -22 -84 -25 -203 -25
-155 0 -239 19 -375 85 -303 147 -370 399 -135 504 53 24 132 41 210 45 14 0
66 -4 115 -10z m195 -1429 c245 -39 423 -153 505 -325 35 -72 39 -88 39 -160
-1 -425 -660 -667 -1117 -410 -64 36 -158 124 -196 183 -61 96 -75 230 -36
342 87 250 466 423 805 370z"/>
<path d="M6935 7798 c-112 -11 -281 -49 -400 -90 -329 -113 -555 -316 -621
-558 -23 -86 -23 -242 0 -330 42 -155 140 -307 287 -444 98 -91 299 -228 423
-287 47 -23 84 -45 81 -49 -2 -4 -31 -15 -63 -24 -274 -77 -466 -212 -551
-389 -52 -106 -62 -157 -62 -297 0 -164 22 -261 84 -385 71 -143 189 -250 367
-333 227 -107 339 -127 650 -119 271 7 380 20 489 59 307 107 482 262 558 493
23 71 26 96 27 220 0 131 -1 144 -27 205 -37 86 -87 161 -161 239 -100 104
-296 247 -418 304 -26 12 -47 25 -48 28 0 3 25 11 56 18 117 27 267 104 389
201 184 146 298 334 345 568 25 122 25 186 0 287 -32 130 -81 217 -174 311
-163 164 -403 281 -701 343 -192 39 -349 48 -530 29z m348 -363 c280 -49 492
-226 527 -440 21 -126 -25 -250 -130 -355 -76 -76 -166 -127 -295 -166 -79
-24 -107 -27 -235 -28 -121 -1 -159 3 -230 22 -107 29 -208 76 -285 135 -75
56 -117 109 -158 195 -29 60 -32 77 -32 157 0 80 3 97 32 158 116 246 459 383
806 322z m121 -1800 c89 -19 163 -61 201 -114 25 -36 30 -52 30 -99 -1 -141
-146 -280 -373 -359 -229 -80 -470 -65 -586 37 -49 44 -66 79 -66 140 0 241
454 467 794 395z"/>
<path d="M3410 4115 l0 -35 1638 0 c2651 1 3867 28 2657 59 -224 6 -1257 11
-2347 11 l-1948 0 0 -35z"/>
<path d="M4020 3155 l0 -505 65 0 c61 0 65 2 71 25 7 29 12 30 39 9 11 -8 48
-24 83 -34 162 -50 283 -2 327 130 23 70 33 196 24 309 -21 247 -141 309 -436
225 l-23 -6 0 176 0 176 -75 0 -75 0 0 -505z m416 31 c29 -33 37 -90 32 -223
-4 -123 -19 -163 -68 -183 -37 -15 -142 -8 -194 14 l-36 15 0 190 c0 114 4
192 10 196 23 14 100 24 164 21 61 -3 73 -7 92 -30z"/>
<path d="M5220 3155 l0 -505 75 0 75 0 0 505 0 505 -75 0 -75 0 0 -505z"/>
<path d="M6165 3341 c-95 -27 -164 -86 -196 -169 -30 -77 -33 -258 -6 -345 22
-70 78 -135 145 -168 40 -20 62 -24 157 -24 127 0 176 17 238 80 62 64 81 129
81 275 0 106 -3 134 -22 181 -27 68 -80 125 -141 152 -50 22 -202 33 -256 18z
m185 -139 c58 -32 75 -79 75 -212 0 -96 -4 -121 -21 -154 -37 -72 -132 -97
-220 -57 -59 27 -77 75 -77 211 0 136 18 184 77 211 53 24 122 24 166 1z"/>
<path d="M7290 3337 c-19 -6 -54 -30 -77 -53 -62 -62 -87 -152 -87 -304 1
-248 76 -350 258 -350 46 0 130 17 179 35 15 6 17 -1 17 -74 0 -101 -11 -116
-100 -126 -59 -7 -214 0 -253 11 -16 5 -18 0 -15 -53 l3 -58 85 -18 c96 -20
247 -18 314 4 52 17 99 65 114 116 9 29 12 160 12 457 l0 416 -60 0 c-54 0
-60 -2 -66 -24 l-5 -23 -62 25 c-71 28 -201 38 -257 19z m253 -147 l37 -11 0
-194 c0 -107 -4 -196 -9 -199 -5 -3 -46 -9 -92 -12 -65 -5 -92 -3 -122 9 -58
25 -70 63 -65 216 4 136 18 183 61 202 26 11 135 4 190 -11z"/>
</g>
</svg>
