<?xml version="1.0" standalone="no"?>
<!DOCTYPE svg PUBLIC "-//W3C//DTD SVG 20010904//EN"
 "http://www.w3.org/TR/2001/REC-SVG-20010904/DTD/svg10.dtd">
<svg version="1.0" xmlns="http://www.w3.org/2000/svg"
 width="1200.000000pt" height="1200.000000pt" viewBox="0 0 1200.000000 1200.000000"
 preserveAspectRatio="xMidYMid meet">
<metadata>
Created by potrace 1.16, written by Peter Selinger 2001-2019
</metadata>
<g transform="translate(0.000000,1200.000000) scale(0.100000,-0.100000)"
fill="#000000" stroke="none">
<path d="M4677 9633 c-13 -21 -32 -67 -42 -101 -14 -45 -27 -69 -47 -84 -15
-10 -28 -27 -28 -36 0 -21 159 -185 379 -392 91 -85 177 -167 192 -181 22 -21
28 -34 26 -63 -2 -21 -7 -40 -13 -44 -6 -4 -14 -22 -17 -40 l-7 -33 34 33 c30
30 33 38 34 95 1 42 -4 65 -14 73 -8 7 -14 19 -14 26 0 8 -4 22 -9 32 -6 9
-24 49 -42 87 -17 39 -47 102 -65 140 -19 39 -34 75 -34 80 0 10 -58 109 -139
235 -53 83 -145 202 -162 208 -4 2 -19 -14 -32 -35z"/>
<path d="M6084 9034 c-126 -28 -169 -40 -219 -63 -33 -15 -87 -37 -120 -48
-140 -48 -225 -82 -247 -99 -36 -28 -118 -131 -134 -169 -7 -18 -18 -37 -24
-40 -6 -4 -8 -15 -5 -25 4 -12 0 -22 -11 -28 -27 -15 -6 -32 40 -32 23 0 46
-4 52 -9 5 -5 70 -11 144 -14 105 -4 141 -3 160 8 14 8 50 14 81 15 44 0 64
-5 94 -26 33 -22 50 -26 119 -27 109 -1 437 13 456 19 8 3 75 8 150 11 79 3
149 11 169 19 18 8 37 11 43 8 11 -7 58 4 58 14 0 4 -20 32 -45 62 -25 30 -65
85 -90 121 -32 48 -68 84 -132 132 -49 36 -102 81 -120 101 -21 24 -41 37 -60
38 -45 2 -83 7 -158 17 -74 10 -186 18 -201 15z"/>
<path d="M5766 8378 c-4 -46 -5 -95 -1 -110 4 -14 2 -29 -4 -32 -12 -8 -5
-126 10 -141 6 -6 15 -6 27 1 15 10 17 31 17 185 0 170 -1 174 -21 177 -20 3
-22 -3 -28 -80z"/>
<path d="M4262 8384 c-12 -8 -22 -22 -22 -31 0 -13 3 -13 27 2 18 12 28 14 31
7 10 -30 78 -123 94 -128 10 -3 31 -16 47 -29 36 -31 98 -26 103 9 3 20 4 20
31 -8 25 -27 29 -28 43 -14 13 13 11 18 -21 42 -34 26 -37 27 -49 11 -9 -12
-19 -15 -34 -11 -18 6 -21 12 -16 32 6 23 4 24 -20 18 -24 -6 -35 1 -86 55
-63 65 -88 73 -128 45z"/>
<path d="M4597 8131 c-24 -24 -28 -36 -26 -77 0 -27 -2 -59 -6 -71 -5 -16 -3
-23 5 -23 8 0 11 -9 7 -26 -3 -15 -1 -41 4 -58 8 -24 5 -41 -12 -78 -23 -49
-21 -70 5 -49 13 11 14 7 11 -26 -1 -21 -3 -41 -4 -45 -2 -18 -31 -6 -55 23
-17 20 -26 43 -26 64 0 24 -6 38 -20 45 -25 13 -47 63 -54 125 -3 27 -11 54
-16 59 -22 22 -80 -65 -80 -121 0 -33 34 -97 65 -122 15 -11 40 -39 57 -63 36
-48 67 -77 86 -78 6 0 12 -11 12 -24 0 -14 8 -40 19 -58 22 -39 33 -99 21
-119 -6 -9 -3 -21 10 -34 15 -15 21 -40 24 -100 13 -206 17 -241 25 -260 5
-11 12 -36 16 -56 3 -21 12 -42 20 -49 18 -15 19 -34 3 -60 -10 -16 -8 -23 15
-44 20 -19 27 -35 27 -63 0 -22 11 -56 25 -82 28 -49 31 -87 10 -115 -21 -28
-19 -39 6 -33 15 4 29 -3 50 -26 16 -17 29 -36 29 -42 0 -5 20 -36 45 -68 35
-44 44 -63 39 -81 -4 -17 0 -29 16 -43 54 -46 80 -77 80 -93 0 -10 6 -23 14
-29 7 -6 16 -26 20 -44 3 -17 20 -60 38 -94 29 -55 32 -65 21 -93 -10 -27 -9
-34 13 -59 24 -28 31 -51 17 -51 -18 1 -103 49 -164 93 -87 61 -134 120 -173
215 -17 42 -43 95 -57 117 -14 22 -29 52 -32 67 -4 14 -18 40 -32 56 -32 39
-32 49 6 88 17 18 29 38 27 45 -2 7 -16 -4 -33 -27 -16 -21 -43 -50 -59 -65
-27 -23 -28 -29 -22 -71 7 -49 75 -172 145 -262 44 -56 161 -166 225 -209 23
-15 78 -48 122 -73 86 -47 134 -100 134 -148 0 -14 5 -28 11 -32 8 -4 4 -13
-12 -25 -22 -17 -23 -18 -6 -37 9 -10 17 -26 17 -34 0 -9 7 -18 15 -22 8 -3
15 -10 15 -16 0 -11 -61 -5 -120 12 -41 12 -173 70 -180 79 -9 11 -68 39 -83
39 -8 0 -20 7 -27 15 -7 9 -29 15 -52 15 -32 0 -39 -3 -36 -17 2 -11 14 -19
32 -21 17 -2 52 -23 81 -48 29 -24 57 -44 62 -44 6 0 16 -6 22 -14 13 -16 112
-66 129 -66 7 0 12 -4 12 -10 0 -5 7 -10 15 -10 8 0 40 -16 71 -36 52 -33 56
-38 51 -67 -5 -37 18 -84 46 -93 29 -9 81 -64 70 -75 -25 -25 -93 -16 -133 16
-8 7 -26 16 -40 20 -14 4 -33 14 -43 23 -16 14 -19 14 -30 -2 -14 -19 -4 -22
-130 33 -26 12 -53 18 -60 14 -15 -9 -59 -4 -72 8 -5 5 -17 9 -27 9 -10 0 -50
23 -90 50 -40 27 -82 50 -93 50 -12 0 -40 18 -63 40 -22 22 -48 40 -55 40 -27
0 -38 24 -21 48 16 24 11 42 -12 42 -8 0 -14 7 -14 15 0 8 -9 19 -20 25 -16 9
-24 7 -37 -6 -21 -21 -74 -13 -105 16 -13 12 -47 33 -76 47 -29 13 -60 36 -69
49 -8 13 -20 24 -25 24 -5 0 -28 15 -51 33 -23 18 -59 41 -81 52 -21 11 -45
30 -53 42 -9 13 -25 23 -37 23 -12 0 -27 9 -33 19 -8 13 -19 18 -32 14 -15 -4
-24 2 -32 21 -15 31 -33 33 -56 6 -10 -11 -23 -20 -30 -20 -7 0 -13 -4 -13
-10 0 -13 17 -13 25 0 9 14 25 2 25 -18 0 -16 146 -182 260 -297 28 -27 50
-55 50 -62 0 -6 10 -13 23 -15 16 -2 22 -10 22 -28 0 -28 41 -100 57 -100 5 0
23 8 39 17 28 17 29 17 61 -14 31 -30 140 -93 256 -149 29 -14 56 -32 59 -40
3 -7 15 -14 27 -14 13 0 33 -11 46 -25 18 -19 26 -22 37 -14 10 9 22 5 51 -15
21 -14 43 -26 50 -26 7 0 12 -4 12 -10 0 -5 12 -13 27 -16 15 -4 71 -30 123
-58 52 -27 115 -53 140 -57 25 -4 63 -13 85 -19 22 -6 63 -16 90 -22 28 -5 71
-16 97 -24 43 -12 51 -11 78 4 23 13 33 15 48 5 12 -7 24 -8 33 -2 8 5 25 7
39 4 67 -14 198 -20 221 -11 9 4 21 1 28 -7 9 -12 20 -13 54 -5 46 12 66 12
114 3 30 -5 31 -5 30 30 -1 39 -4 41 -27 20 -13 -12 -23 -13 -41 -6 -13 5 -46
15 -72 23 -50 13 -71 35 -61 61 9 25 -15 29 -42 8 -35 -28 -57 -28 -49 -1 6
18 3 20 -19 14 -35 -8 -32 5 9 39 29 24 37 26 55 17 11 -6 31 -8 43 -4 12 4
34 7 48 5 14 -1 31 5 39 13 18 23 43 20 68 -9 12 -14 33 -25 46 -25 14 0 37
-5 52 -10 33 -13 42 -5 26 20 -14 24 -4 27 12 4 10 -14 14 -13 38 5 14 12 33
21 42 21 11 0 16 9 16 29 0 36 25 47 47 21 21 -25 39 -25 52 -3 9 17 10 17 28
0 26 -23 38 -22 79 9 49 38 43 94 -11 94 -12 0 -30 9 -40 20 -17 19 -17 21 0
40 10 11 27 20 38 20 11 0 26 8 33 18 10 13 15 14 25 5 10 -10 10 -15 0 -27
-18 -22 -3 -39 31 -34 16 3 31 1 34 -4 3 -4 14 -3 25 3 25 13 36 5 21 -14 -20
-24 4 -36 44 -22 51 17 63 33 41 50 -29 21 -6 55 38 55 18 0 37 -4 40 -10 8
-14 35 -13 35 1 0 6 -11 20 -25 31 -14 11 -25 25 -25 33 0 7 -7 16 -16 19 -25
10 -6 26 24 20 36 -7 62 19 44 44 -6 10 -21 35 -33 57 -23 42 -38 57 -51 49
-14 -9 -9 -34 7 -34 9 0 14 -9 14 -22 -1 -13 1 -30 5 -39 10 -23 -12 -34 -32
-16 -26 22 -88 29 -103 11 -24 -29 -47 -35 -75 -21 l-25 13 35 35 c20 19 36
40 36 47 0 6 7 12 15 12 17 0 20 25 5 35 -17 10 -11 25 10 25 11 0 20 5 20 10
0 6 -9 10 -20 10 -21 0 -28 32 -12 57 9 15 52 -19 52 -41 0 -17 57 -46 77 -39
16 6 44 63 37 74 -2 5 -18 6 -34 2 -26 -5 -30 -2 -30 16 0 18 -6 21 -45 21
-32 0 -45 4 -45 14 0 8 6 16 13 19 9 3 9 9 -1 26 -11 19 -9 28 23 75 32 48 34
57 24 80 -7 14 -16 26 -21 26 -20 0 -5 31 20 41 43 16 82 59 82 90 0 15 5 31
10 34 17 10 11 47 -12 82 -13 18 -27 33 -31 33 -5 0 -23 14 -40 31 -39 40 -30
57 46 84 30 11 59 24 63 28 12 12 44 8 44 -5 0 -7 -7 -22 -15 -32 -20 -26 -19
-46 3 -47 13 0 13 -2 -4 -9 -44 -18 -71 -84 -39 -96 23 -9 105 62 105 91 0 13
-4 27 -10 30 -5 3 -10 12 -10 18 0 7 4 6 10 -3 8 -12 13 -13 29 -3 17 11 22
10 30 -6 6 -10 18 -22 27 -25 14 -5 16 -1 10 26 -4 18 -11 35 -16 36 -12 4
-13 22 -1 22 4 0 20 -12 35 -27 22 -21 31 -25 44 -16 25 15 28 43 4 43 -15 0
-18 6 -14 29 3 25 -1 31 -38 50 -41 21 -42 21 -47 2 -3 -11 -16 -21 -32 -23
l-27 -4 24 46 c20 35 26 62 27 121 2 42 8 86 15 99 6 12 9 32 6 44 -4 16 2 30
19 46 16 15 25 34 25 55 0 21 9 40 25 55 30 28 31 41 5 65 -19 18 -19 18 5 47
14 16 25 33 25 37 0 12 -55 95 -72 109 -13 10 -17 10 -22 -5 -5 -12 0 -23 13
-35 31 -24 27 -48 -7 -48 -36 0 -58 18 -66 52 -5 21 -1 30 16 42 12 9 30 16
39 16 9 0 19 8 23 18 3 9 12 34 18 54 8 22 26 46 47 60 38 26 51 48 27 48 -9
0 -16 -4 -16 -9 0 -5 -17 -16 -37 -24 -21 -8 -47 -24 -57 -36 -22 -24 -46 -28
-46 -6 0 8 23 31 50 51 47 34 49 37 33 50 -17 13 -16 16 15 44 24 22 32 38 32
64 0 18 7 39 15 46 13 11 13 15 0 33 -12 17 -12 24 -1 46 8 14 20 40 27 56 7
17 15 34 17 39 3 4 -10 5 -28 1 -31 -7 -33 -6 -28 19 4 21 2 26 -11 24 -9 -2
-17 -13 -19 -25 l-3 -23 -30 22 c-25 19 -33 20 -50 10 -25 -16 -35 -10 -42 27
-8 37 -37 47 -79 27 -40 -20 -57 -8 -40 29 7 14 12 34 12 44 0 20 40 61 87 88
47 27 173 114 179 124 3 5 0 9 -7 9 -7 0 -4 7 7 15 14 11 15 14 4 14 -8 1 -26
-8 -40 -19 -14 -11 -19 -20 -12 -20 24 0 11 -15 -22 -26 -28 -9 -38 -7 -61 9
-26 19 -66 20 -134 1 -23 -7 -23 -7 -6 19 14 23 20 24 41 15 28 -13 39 -6 30
17 -7 18 -37 16 -110 -5 -22 -7 -52 -9 -67 -6 -15 3 -63 -1 -106 -9 -47 -9
-185 -16 -353 -20 -262 -6 -276 -7 -297 -27 -13 -12 -23 -25 -23 -30 0 -14 47
-9 60 7 9 11 32 15 79 15 76 -1 107 -16 96 -50 -4 -14 -1 -28 11 -41 16 -18
16 -20 1 -37 -23 -25 -21 -32 8 -32 21 0 25 -5 25 -31 0 -28 3 -30 23 -25 18
4 33 -5 71 -43 39 -40 46 -52 41 -73 -4 -15 -2 -29 4 -32 6 -4 11 -16 11 -27
0 -10 5 -28 12 -39 10 -16 9 -23 -10 -43 -12 -13 -22 -30 -22 -38 0 -18 75
-53 95 -45 17 6 20 32 5 41 -6 3 -8 52 -6 118 1 68 -2 119 -8 130 -9 14 -7 21
8 33 29 20 49 18 41 -5 -7 -23 13 -39 21 -17 7 17 34 22 34 6 0 -5 -7 -13 -15
-17 -9 -5 -11 -13 -6 -22 13 -20 39 -7 43 21 4 27 37 37 50 14 5 -9 22 -16 40
-16 25 0 29 -3 23 -17 -4 -10 -13 -33 -20 -51 -6 -18 -23 -45 -37 -60 -41 -45
-68 -89 -68 -111 0 -12 -15 -37 -32 -57 -25 -26 -47 -38 -88 -47 -38 -9 -56
-18 -58 -30 -2 -10 3 -17 11 -17 8 0 20 -7 27 -15 10 -13 10 -19 -4 -33 -9
-10 -16 -26 -16 -34 0 -9 -7 -21 -15 -28 -18 -15 -19 -34 -3 -60 10 -16 10
-25 -3 -47 -12 -21 -15 -50 -12 -113 4 -102 9 -130 26 -130 16 0 40 -80 31
-103 -5 -13 -1 -17 15 -17 31 0 37 27 13 60 l-21 28 20 27 c20 25 20 27 4 46
-18 18 -17 20 25 59 48 45 57 47 75 23 11 -14 16 -15 28 -5 12 10 18 10 31 -3
9 -9 16 -25 16 -35 0 -10 5 -22 10 -25 6 -3 10 -22 10 -41 0 -22 9 -48 24 -67
39 -51 66 -146 56 -191 -14 -65 -31 -76 -111 -69 -68 6 -71 5 -102 -24 -39
-37 -81 -59 -136 -72 -32 -7 -52 -5 -95 11 l-54 20 -31 -23 -31 -23 -30 22
c-34 26 -48 27 -75 8 -11 -7 -41 -16 -67 -20 -37 -6 -55 -16 -91 -52 -25 -25
-53 -56 -61 -69 -18 -28 -36 -33 -36 -11 0 27 -18 27 -46 1 -15 -14 -34 -23
-41 -20 -7 3 -19 8 -27 11 -8 3 -29 -8 -48 -25 -24 -21 -41 -28 -56 -24 -17 4
-22 1 -22 -16 0 -15 -9 -23 -32 -29 -21 -6 -32 -14 -30 -24 1 -8 -5 -21 -13
-28 -22 -19 -19 -50 5 -50 13 0 29 -13 41 -35 22 -37 53 -60 69 -50 5 3 7 12
4 19 -3 7 2 16 10 19 9 4 16 13 16 22 0 8 5 15 10 15 6 0 30 20 53 45 24 25
53 45 64 45 11 0 23 3 27 7 9 10 78 33 98 33 9 0 23 -6 30 -13 17 -18 154 -32
163 -18 11 19 26 12 23 -11 -2 -16 -16 -27 -48 -39 -25 -9 -46 -24 -48 -33 -3
-16 0 -17 107 -20 43 -2 33 -22 -24 -45 -31 -13 -54 -28 -52 -34 5 -15 41 -25
95 -26 40 -1 43 1 58 39 9 22 19 40 23 40 9 0 35 -90 27 -97 -7 -7 -70 -6
-234 6 -8 1 -10 9 -6 26 5 20 2 25 -13 25 -10 0 -24 5 -31 12 -9 9 -16 8 -30
-5 -17 -15 -20 -15 -43 1 -15 10 -45 17 -79 18 -30 1 -66 3 -79 5 -42 7 -47
-21 -11 -74 17 -26 36 -47 42 -47 6 0 17 -8 24 -17 7 -10 16 -14 21 -10 4 5
-1 15 -11 23 -16 11 -18 19 -10 41 13 39 32 40 26 2 -3 -24 -1 -30 9 -27 8 2
18 14 24 26 13 30 29 28 21 -3 -4 -14 -1 -28 6 -34 7 -6 29 -24 49 -41 20 -16
43 -30 51 -30 9 0 32 -13 53 -30 33 -26 46 -30 101 -30 35 0 64 -4 64 -9 0 -5
-7 -25 -16 -46 -15 -38 -14 -52 5 -40 6 3 11 17 11 30 0 27 24 55 47 55 8 0
27 8 41 18 15 10 46 24 70 32 59 19 108 70 104 110 -3 23 0 30 14 30 9 0 15
-3 11 -6 -3 -4 0 -19 9 -35 14 -27 13 -29 -6 -29 -15 0 -20 -7 -20 -26 0 -21
4 -25 20 -21 11 3 20 1 20 -4 0 -16 26 -10 45 11 21 23 35 26 35 8 0 -18 -189
-192 -198 -183 -4 3 1 11 11 16 9 6 17 18 17 28 0 10 9 26 20 36 14 13 17 22
10 29 -7 7 -22 -2 -48 -26 -20 -20 -49 -41 -64 -47 -22 -8 -28 -17 -28 -40 0
-33 -20 -58 -55 -67 -31 -8 -233 1 -264 11 -22 7 -23 6 -17 -18 6 -24 3 -27
-18 -27 -14 0 -28 -5 -32 -11 -3 -6 -16 -8 -27 -5 -12 3 -27 0 -34 -6 -9 -7
-14 -6 -19 6 -4 9 -18 16 -34 16 -41 0 -150 128 -150 177 0 25 -140 183 -162
183 -10 0 -18 7 -18 15 0 7 -7 18 -17 23 -15 9 -14 12 5 37 12 15 22 32 22 37
0 4 -19 29 -41 53 -37 40 -39 45 -20 45 28 0 27 11 -4 40 -17 16 -25 35 -27
69 -3 39 -6 46 -25 49 -14 2 -29 16 -39 37 -9 19 -24 37 -34 40 -10 3 -25 20
-34 38 -8 18 -28 39 -43 47 -15 8 -30 15 -32 17 -2 1 7 11 19 21 23 19 21 45
-4 36 -7 -3 -25 0 -40 6 -22 8 -27 15 -23 31 4 14 -2 28 -19 44 -13 12 -24 29
-24 37 0 8 -13 24 -30 36 -21 16 -30 31 -30 51 0 15 -9 36 -19 45 -11 10 -29
43 -41 74 -41 107 -73 177 -91 200 -10 13 -21 47 -24 77 -4 30 -13 60 -21 66
-8 6 -14 26 -14 45 0 18 -5 36 -11 39 -17 11 -27 49 -18 66 6 12 2 25 -11 42
-11 14 -17 32 -14 41 4 9 0 24 -8 34 -17 19 -32 162 -17 162 5 0 9 -4 9 -10 0
-5 7 -10 15 -10 8 0 15 5 15 11 0 17 -22 53 -37 62 -12 8 -12 12 5 30 30 34
42 61 32 77 -5 8 -12 40 -15 70 -4 30 -11 65 -17 78 -9 17 -8 28 2 47 16 30 6
44 -20 27 -30 -18 -33 -15 -26 23 8 42 0 44 -37 6z m2008 -1830 c3 -5 -8 -17
-24 -27 -36 -21 -53 -82 -27 -96 21 -12 20 -25 -4 -38 -16 -8 -26 -5 -55 21
-19 17 -50 37 -68 43 -18 6 -34 16 -36 21 -5 14 40 36 60 30 9 -3 40 8 70 24
58 32 75 36 84 22z"/>
<path d="M5550 7850 c-19 -17 -40 -30 -47 -30 -7 0 -13 -5 -13 -11 0 -8 15
-10 45 -6 34 3 51 0 67 -13 26 -20 17 -39 -15 -33 -16 3 -26 -1 -31 -12 -9
-23 3 -38 25 -32 11 3 20 -1 24 -12 7 -23 109 -65 139 -57 28 7 46 -11 25 -25
-8 -5 -35 -9 -61 -9 -49 0 -52 -3 -48 -47 1 -15 -4 -23 -14 -23 -9 0 -16 -7
-16 -15 0 -20 20 -19 36 3 10 13 15 14 25 5 10 -10 7 -18 -14 -37 -31 -29 -34
-41 -11 -54 22 -12 13 -26 -31 -46 -28 -14 -35 -22 -30 -37 6 -17 1 -19 -37
-19 -45 0 -133 27 -200 61 -43 22 -78 17 -78 -10 0 -14 10 -20 40 -24 23 -3
52 -13 67 -24 40 -28 108 -59 210 -97 43 -16 47 -21 34 -44 -9 -17 -7 -24 15
-41 14 -11 32 -17 40 -14 9 3 14 -2 14 -15 0 -34 17 -34 61 -2 23 16 46 30 51
30 15 0 126 77 183 128 54 47 54 47 27 52 -22 5 -26 10 -24 30 2 14 4 41 6 60
2 19 6 47 10 61 5 17 3 29 -4 34 -6 4 -15 18 -20 31 -6 16 -20 27 -40 30 -47
10 -38 33 13 32 29 -1 53 -10 78 -30 28 -21 48 -28 81 -28 61 0 89 21 82 63
-6 34 -35 97 -45 97 -3 0 -16 -11 -29 -25 -30 -32 -63 -32 -80 0 -10 18 -19
24 -32 19 -11 -3 -25 0 -33 6 -8 7 -31 10 -52 8 -30 -4 -44 0 -66 19 -16 12
-35 23 -44 23 -8 0 -36 23 -63 50 -45 46 -52 50 -97 50 -26 0 -57 2 -68 5 -13
3 -33 -6 -55 -25z"/>
<path d="M4132 5974 c-27 -19 -21 -30 45 -75 24 -17 43 -37 43 -46 0 -13 3
-13 15 -3 12 10 23 8 57 -7 24 -11 77 -35 118 -53 41 -19 85 -42 96 -53 19
-16 25 -17 42 -6 27 17 35 8 22 -25 -13 -34 -4 -49 23 -42 12 3 27 0 34 -5 16
-14 67 -3 86 19 9 11 13 29 10 49 -5 33 -4 33 -83 22 -35 -5 -60 2 -60 16 0 8
-7 15 -15 15 -8 0 -29 13 -48 29 -18 16 -59 41 -90 55 -32 14 -60 32 -64 41
-7 19 -79 53 -138 65 -22 4 -47 10 -55 14 -8 3 -25 -1 -38 -10z"/>
<path d="M1493 3963 c-10 -4 -13 -127 -13 -569 l0 -564 23 -5 c13 -4 2039 -5
4503 -3 l4479 3 0 570 0 570 -4490 2 c-2470 1 -4496 -1 -4502 -4z m3652 -568
l0 -470 -1770 -2 c-1112 -2 -1773 1 -1779 7 -9 9 -17 900 -8 928 3 10 364 12
1781 10 l1776 -3 0 -470z m925 391 c85 -20 210 -92 210 -121 0 -15 -123 -135
-138 -135 -8 0 -30 14 -49 30 -18 17 -43 30 -54 30 -11 0 -29 4 -39 10 -39 21
-158 -26 -203 -80 -56 -66 -53 -141 9 -210 72 -80 201 -94 290 -32 25 18 49
30 53 27 27 -16 131 -120 131 -130 0 -38 -133 -111 -226 -124 -106 -16 -242 0
-284 33 -8 6 -32 20 -54 31 -54 27 -121 108 -147 177 -31 83 -24 210 15 286
85 167 291 255 486 208z m2488 -215 c9 -5 12 -26 10 -67 l-3 -59 -107 -3 c-82
-2 -107 -6 -112 -17 -13 -35 4 -44 87 -47 l82 -3 3 -51 c4 -72 -10 -84 -99
-84 -54 0 -71 -4 -76 -16 -10 -26 8 -32 102 -35 131 -3 125 1 125 -75 0 -36
-4 -64 -10 -65 -92 -4 -354 1 -361 8 -5 5 -8 116 -7 259 l3 249 50 6 c79 9
299 10 313 0z m422 -16 c72 -37 118 -139 68 -149 -13 -3 -34 -7 -48 -10 -14
-2 -35 -7 -47 -11 -17 -6 -25 -1 -37 24 -18 35 -24 37 -51 17 -31 -22 -10 -43
67 -68 101 -32 148 -78 148 -146 0 -96 -80 -162 -195 -162 -81 0 -128 20 -165
72 -39 54 -39 76 3 92 66 27 93 27 117 0 26 -27 61 -31 79 -10 15 18 -9 35
-91 61 -75 25 -127 76 -135 133 -10 73 52 152 134 171 44 11 117 4 153 -14z
m688 -243 l-3 -257 -64 -3 c-45 -2 -67 1 -72 10 -5 7 -9 50 -9 95 0 45 -4 83
-10 85 -5 2 -39 1 -74 0 l-65 -4 -3 -91 -3 -92 -70 0 -70 0 0 255 0 255 70 0
70 0 2 -80 c1 -44 2 -86 2 -92 1 -9 23 -13 76 -13 l75 0 0 90 c0 104 2 106 89
102 l61 -4 -2 -256z m534 250 c5 -5 8 -33 6 -63 l-3 -54 -110 -5 c-109 -5
-110 -5 -110 -30 0 -24 2 -25 85 -30 l85 -5 0 -55 c0 -30 -4 -61 -9 -67 -5 -9
-35 -13 -86 -13 -78 0 -94 -7 -82 -37 3 -9 34 -13 106 -13 66 0 106 -4 114
-12 16 -16 16 -115 0 -124 -15 -9 -325 -16 -350 -8 -17 5 -18 26 -18 264 0
194 3 259 12 262 24 8 351 -1 360 -10z m-3580 -84 l3 -93 72 -3 72 -3 3 93 3
93 73 3 72 3 0 -259 c0 -199 -3 -261 -12 -264 -7 -3 -40 -2 -73 1 l-60 6 -3
93 -3 92 -74 0 -75 0 0 -90 c0 -104 -3 -108 -87 -100 l-58 5 -3 245 c-1 134 0
250 3 257 3 9 27 13 74 13 l70 0 3 -92z m598 85 c4 -219 -1 -507 -9 -512 -5
-4 -36 -4 -68 -1 l-58 5 -3 258 -2 257 70 0 c38 0 70 -3 70 -7z m307 -5 c6 -7
25 -50 43 -95 19 -45 37 -80 40 -78 4 2 24 45 45 95 49 120 63 119 113 -2 19
-49 41 -88 49 -88 7 0 13 7 13 14 0 8 15 49 34 90 l35 76 75 0 c80 0 89 -6 63
-45 -7 -11 -28 -58 -47 -105 -18 -47 -45 -112 -60 -145 -15 -33 -42 -95 -61
-139 -50 -117 -66 -115 -120 19 -19 47 -37 85 -41 85 -4 0 -10 -10 -13 -22 -4
-13 -21 -56 -37 -95 -36 -88 -57 -96 -88 -30 -59 127 -198 463 -194 469 9 13
141 9 151 -4z"/>
<path d="M1945 3751 c-57 -6 -60 -7 -63 -35 -5 -41 11 -51 86 -51 l67 0 3
-282 2 -282 36 -7 c19 -3 38 -4 41 0 3 3 7 133 7 288 l1 283 70 0 c39 0 76 4
83 8 18 12 15 74 -4 81 -19 7 -244 5 -329 -3z"/>
<path d="M3722 3544 c-44 -19 -72 -68 -72 -125 0 -59 27 -90 115 -129 73 -33
90 -62 62 -109 -25 -42 -59 -47 -106 -15 -65 43 -97 13 -43 -39 46 -44 88 -51
141 -24 115 57 99 181 -31 237 -68 29 -88 47 -88 80 0 32 37 70 69 70 12 0 33
-12 46 -26 20 -21 27 -24 44 -14 27 14 27 31 -1 57 -24 22 -82 54 -95 52 -4 0
-23 -7 -41 -15z"/>
<path d="M2474 3537 c-2 -7 -3 -109 -2 -227 3 -214 3 -215 26 -218 l22 -3 0
230 c0 226 0 231 -20 231 -11 0 -23 -6 -26 -13z"/>
<path d="M2967 3544 c-4 -4 -7 -72 -7 -151 0 -115 -3 -143 -14 -143 -7 0 -22
12 -31 27 -28 42 -216 253 -226 253 -5 0 -9 -98 -9 -220 l0 -220 25 0 25 0 0
144 c0 80 4 147 9 150 5 3 42 -33 82 -82 40 -48 82 -96 94 -107 11 -11 33 -37
49 -57 16 -21 32 -38 37 -38 6 0 8 95 7 222 -3 192 -5 223 -18 226 -9 1 -19 0
-23 -4z"/>
<path d="M4032 3542 c-9 -7 -12 -59 -10 -228 l3 -219 25 0 c25 0 25 2 30 95
l5 95 95 0 95 0 2 -89 c2 -91 10 -113 38 -103 13 6 15 34 13 229 -3 215 -4
223 -23 223 -18 0 -20 -8 -25 -92 -3 -50 -7 -94 -11 -97 -9 -9 -170 -9 -179 0
-5 5 -10 50 -12 99 -3 92 -12 109 -46 87z"/>
<path d="M4492 3542 c-9 -7 -12 -59 -10 -228 l3 -219 118 -3 118 -3 -3 28 -3
28 -82 0 c-45 0 -85 3 -89 8 -11 11 -10 118 1 125 6 4 35 5 67 3 50 -2 57 0
63 19 11 33 -11 50 -65 49 -26 -1 -53 2 -59 5 -6 4 -11 35 -11 72 l0 64 83 0
c90 0 113 10 96 42 -8 16 -23 18 -112 18 -56 0 -108 -4 -115 -8z"/>
<path d="M3323 3513 c-3 -10 -39 -103 -80 -207 -41 -104 -75 -194 -76 -200 -1
-6 8 -12 20 -14 16 -2 26 5 39 30 9 18 22 36 28 40 6 4 46 8 88 8 l78 0 25
-40 c24 -39 65 -56 65 -27 0 6 -33 98 -74 202 -41 105 -76 198 -80 208 -3 9
-10 17 -16 17 -6 0 -13 -8 -17 -17z"/>
</g>
</svg>
